{
  "accessors": [
    {
      "bufferView": 2,
      "componentType": 5126,
      "count": 6583,
      "max": [
        3.0531771183013916,
        1.5155179500579834,
        4.4581818580627441
      ],
      "min": [
        -1.6473629474639893,
        -1.9340939521789551,
        0.016984999179840088
      ],
      "type": "VEC3"
    },
    {
      "bufferView": 2,
      "byteOffset": 78996,
      "componentType": 5126,
      "count": 6583,
      "max": [
        0.99744248390197754,
        0.99977648258209229,
        0.99933165311813354
      ],
      "min": [
        -0.99961137771606445,
        -0.99985545873641968,
        -0.99969077110290527
      ],
      "type": "VEC3"
    },
    {
      "bufferView": 3,
      "componentType": 5126,
      "count": 6583,
      "max": [
        0.99744617938995361,
        0.99957019090652466,
        0.99990731477737427,
        1
      ],
      "min": [
        -0.99969589710235596,
        -0.99968224763870239,
        -0.99996054172515869,
        -1
      ],
      "type": "VEC4"
    },
    {
      "bufferView": 1,
      "componentType": 5126,
      "count": 6583,
      "max": [
        0.99515300989151001,
        0.99769902229309082
      ],
      "min": [
        0.0039059999398887157,
        0.0039059999398887157
      ],
      "type": "VEC2"
    },
    {
      "bufferView": 0,
      "componentType": 5125,
      "count": 29784,
      "max": [
        6582
      ],
      "min": [
        0
      ],
      "type": "SCALAR"
    }
  ],
  "asset": {
    "extras": {
      "author": "wileyart (https://sketchfab.com/wileyart)",
      "license": "CC-BY-4.0 (http://creativecommons.org/licenses/by/4.0/)",
      "source": "https://sketchfab.com/models/3a08448119fb47d08e8a0cdd790db4b4",
      "title": "T-Rex"
    },
    "generator": "Sketchfab-3.18.5",
    "version": "2.0"
  },
  "bufferViews": [
    {
      "buffer": 0,
      "byteLength": 119136,
      "byteOffset": 0,
      "name": "floatBufferViews",
      "target": 34963
    },
    {
      "buffer": 0,
      "byteLength": 52664,
      "byteOffset": 119136,
      "byteStride": 8,
      "name": "floatBufferViews",
      "target": 34962
    },
    {
      "buffer": 0,
      "byteLength": 157992,
      "byteOffset": 171800,
      "byteStride": 12,
      "name": "floatBufferViews",
      "target": 34962
    },
    {
      "buffer": 0,
      "byteLength": 105328,
      "byteOffset": 329792,
      "byteStride": 16,
      "name": "floatBufferViews",
      "target": 34962
    }
  ],
  "buffers": [
    {
      "byteLength": 435120,
      "uri": "t-rex.bin"
    }
  ],
  "images": [
    {
      "uri": "textures/TrexLowPolyFixedTREX_lowPoly_baseColor.jpeg"
    }
  ],
  "materials": [
    {
      "doubleSided": false,
      "emissiveFactor": [
        0,
        0,
        0
      ],
      "name": "TrexLowPolyFixedTREX_lowPoly",
      "pbrMetallicRoughness": {
        "baseColorFactor": [
          1,
          1,
          1,
          1
        ],
        "baseColorTexture": {
          "index": 0,
          "texCoord": 0
        },
        "metallicFactor": 0,
        "roughnessFactor": 0.59999999999999998
      }
    }
  ],
  "meshes": [
    {
      "primitives": [
        {
          "attributes": {
            "NORMAL": 1,
            "POSITION": 0,
            "TANGENT": 2,
            "TEXCOORD_0": 3
          },
          "indices": 4,
          "material": 0,
          "mode": 4
        }
      ]
    }
  ],
  "nodes": [
    {
      "children": [
        1
      ],
      "name": "RootNode (gltf orientation matrix)",
      "rotation": [
        -0.70710678118654746,
        -0,
        -0,
        0.70710678118654757
      ]
    },
    {
      "children": [
        2
      ],
      "name": "RootNode (model correction matrix)"
    },
    {
      "children": [
        3
      ],
      "name": "TrexLowPolyFixed2_smoothed23.obj.cleaner.gles"
    },
    {
      "mesh": 0,
      "name": ""
    }
  ],
  "samplers": [
    {
      "magFilter": 9729,
      "minFilter": 9987,
      "wrapS": 10497,
      "wrapT": 10497
    }
  ],
  "scene": 0,
  "scenes": [
    {
      "name": "OSG_Scene",
      "nodes": [
        0
      ]
    }
  ],
  "textures": [
    {
      "sampler": 0,
      "source": 0
    }
  ]
}
